<?xml version="1.0" standalone="no"?>
<!DOCTYPE svg PUBLIC "-//W3C//DTD SVG 20010904//EN"
 "http://www.w3.org/TR/2001/REC-SVG-20010904/DTD/svg10.dtd">
<svg version="1.0" xmlns="http://www.w3.org/2000/svg"
 width="1280.000000pt" height="640.000000pt" viewBox="0 0 1280.000000 640.000000"
 preserveAspectRatio="xMidYMid meet">
<metadata>
Created by potrace 1.15, written by Peter Selinger 2001-2017
</metadata>
<g transform="translate(0.000000,640.000000) scale(0.100000,-0.100000)"
fill="#03a9f4" stroke="none">
<path d="M5720 5241 c-171 -46 -328 -133 -790 -441 -350 -233 -474 -301 -587
-325 -37 -8 -167 -24 -288 -35 -647 -61 -1112 -145 -1910 -347 -898 -226
-1441 -388 -1779 -532 -320 -136 -435 -269 -320 -373 52 -46 607 -238 689
-238 20 0 35 -6 39 -15 25 -66 496 -132 1396 -195 239 -17 455 -34 480 -38 53
-9 46 4 182 -321 205 -494 386 -790 633 -1036 123 -124 186 -171 253 -191 62
-19 152 -18 180 2 30 21 29 70 -9 301 -22 137 -29 203 -24 243 17 143 144 440
321 748 l108 189 165 7 c531 21 925 48 1526 106 171 16 330 31 354 34 33 3 55
-2 96 -24 65 -34 177 -110 323 -217 300 -223 515 -332 605 -309 30 7 58 69 81
178 20 99 54 181 120 293 30 50 59 107 64 128 14 50 -1 86 -40 94 -15 3 -28 9
-28 13 0 9 212 20 375 20 l120 0 159 -130 c333 -271 573 -419 755 -466 72 -18
122 -13 152 17 40 40 15 120 -76 248 -80 113 -60 157 105 226 51 21 108 52
128 69 l35 31 151 0 c202 0 235 -6 286 -55 84 -81 347 -235 571 -336 250 -112
426 -156 622 -155 123 0 182 13 197 41 9 17 -2 33 -80 116 -89 95 -225 285
-236 331 -4 13 -4 29 -1 35 7 19 249 146 592 311 165 80 397 192 515 250 118
57 225 108 237 111 17 6 32 -2 66 -33 67 -62 69 -62 229 81 110 98 189 156
263 193 96 49 97 94 2 139 -189 89 -522 93 -1142 15 -237 -29 -504 -75 -645
-110 -242 -60 -817 -260 -971 -339 -88 -44 -159 -60 -273 -60 -175 1 -340 64
-452 174 -114 112 -120 203 -35 480 45 144 41 184 -26 228 -37 24 -97 23 -203
-3 -180 -43 -265 -81 -584 -261 -322 -183 -346 -191 -496 -185 -115 5 -166 13
-505 87 -99 22 -337 73 -530 115 -458 99 -786 175 -805 186 -9 5 38 9 120 10
202 2 206 5 83 68 -214 110 -263 195 -293 506 -24 254 -43 326 -91 350 -36 19
-78 18 -159 -4z m145 -65 c10 -15 25 -95 41 -218 40 -319 66 -404 159 -507 25
-30 43 -57 38 -61 -4 -5 -46 -4 -93 0 -150 16 -270 -13 -278 -68 -5 -30 26
-42 136 -53 52 -6 182 -32 286 -59 105 -27 256 -58 336 -70 209 -30 369 -61
743 -146 528 -119 618 -136 722 -132 83 3 97 6 180 48 50 24 176 94 280 154
301 173 480 252 636 278 59 10 70 10 94 -6 27 -18 28 -20 22 -85 -4 -36 -18
-118 -33 -181 -37 -155 -38 -276 -5 -340 13 -25 37 -61 52 -81 16 -20 29 -40
29 -43 0 -3 -16 -6 -35 -6 -42 0 -407 56 -492 76 -64 15 -93 11 -93 -12 0 -20
26 -30 114 -44 43 -6 115 -23 160 -37 152 -46 354 -84 804 -154 l143 -22 162
83 c141 71 171 82 222 85 33 2 62 4 64 4 2 1 -2 8 -9 16 -8 10 -9 19 -4 25 5
4 77 13 159 19 145 10 247 30 261 52 13 22 -10 22 -99 1 -125 -30 -159 -29
-89 3 356 162 1596 355 1967 306 94 -12 285 -59 285 -70 -1 -3 -32 -28 -69
-54 -67 -47 -121 -92 -261 -214 -46 -41 -79 -63 -95 -63 -17 0 -49 22 -96 65
-82 75 -109 83 -109 30 0 -29 -6 -40 -42 -65 -88 -64 -558 -285 -720 -339 -49
-16 -73 -31 -91 -55 -16 -20 -45 -40 -74 -51 -26 -9 -114 -53 -194 -96 -159
-86 -221 -111 -259 -107 -39 5 -33 -33 8 -52 39 -19 32 -30 -18 -30 -46 0
-104 37 -108 69 -4 22 -4 22 -23 5 -28 -25 -54 -8 -54 37 0 27 7 38 34 56 37
25 107 31 143 12 17 -9 19 -8 13 10 -9 30 53 67 460 271 376 188 587 285 777
356 154 57 186 74 166 85 -30 17 -204 -38 -444 -140 -77 -32 -328 -150 -559
-261 -440 -212 -503 -240 -535 -240 -30 0 -24 17 25 72 41 46 54 68 39 68 -14
0 -98 -65 -143 -111 -33 -34 -66 -56 -103 -69 -120 -42 -267 -72 -410 -84
-139 -11 -170 -17 -155 -33 4 -3 64 -10 135 -14 85 -4 143 -13 175 -25 39 -15
51 -16 65 -6 71 51 77 53 129 48 70 -6 169 -59 263 -141 130 -113 221 -185
234 -185 6 0 43 -30 82 -67 38 -38 86 -83 107 -100 58 -49 44 -57 -89 -49
-183 10 -340 52 -621 166 -174 71 -261 118 -291 159 -12 17 -46 45 -75 61
l-52 31 93 -7 c50 -4 92 -4 92 -1 0 4 -21 18 -46 33 -40 23 -55 26 -128 25
-78 -1 -86 1 -120 28 -59 47 -153 61 -640 91 -459 29 -649 24 -658 -15 -6 -26
70 -43 480 -106 83 -13 152 -26 152 -29 0 -3 -32 -18 -70 -33 -94 -38 -130
-69 -130 -112 0 -33 -1 -33 -39 -28 -30 4 -39 2 -45 -12 -11 -31 18 -68 82
-105 76 -43 146 -107 169 -155 16 -32 16 -37 1 -51 -15 -15 -22 -15 -89 6
-168 51 -476 233 -667 394 -204 173 -258 200 -434 216 -129 12 -1035 -14
-1076 -31 -31 -12 -25 -41 11 -50 16 -4 84 -7 151 -7 134 1 199 -13 194 -40
-4 -22 -74 -56 -168 -81 -41 -12 -97 -27 -125 -35 l-50 -14 85 -1 c95 -1 174
16 265 56 33 15 92 35 130 46 78 21 279 35 288 20 3 -5 -23 -59 -59 -119 -118
-197 -154 -285 -154 -377 0 -21 -7 -51 -15 -67 -14 -27 -20 -30 -63 -30 -31 0
-73 11 -124 34 -140 61 -451 279 -583 409 -38 38 -90 81 -115 95 l-45 27 -202
-3 c-181 -3 -210 -1 -269 18 -85 26 -96 25 -59 -5 16 -13 26 -28 22 -32 -4 -4
-94 -11 -200 -15 -106 -5 -248 -15 -318 -23 -160 -19 -213 -19 -229 0 -8 10
-28 14 -61 13 -37 -2 -53 3 -71 19 -28 25 -64 37 -72 24 -4 -6 3 -15 15 -21
37 -20 6 -33 -70 -28 -70 4 -99 16 -87 37 5 8 13 8 28 0 27 -15 48 4 32 29
-19 29 -43 25 -99 -17 -30 -23 -58 -41 -62 -41 -4 0 -17 12 -28 27 -31 37
-108 43 -190 13 -33 -12 -89 -30 -125 -40 -79 -23 -218 -26 -245 -6 -24 17
-14 46 14 39 18 -5 21 -1 21 27 0 30 -2 32 -27 26 -80 -18 -98 -18 -120 4 -36
33 -29 56 25 84 l47 25 -40 0 c-22 1 -107 -17 -190 -39 -204 -54 -220 -53
-297 18 -16 14 -33 22 -42 19 -10 -4 -24 4 -38 23 -26 36 -35 38 -40 8 -3 -20
-9 -21 -83 -23 -81 -2 -175 -21 -175 -35 0 -11 57 -30 87 -30 13 0 33 5 44 11
27 14 48 -5 104 -91 51 -78 83 -150 91 -202 6 -37 13 -43 44 -38 28 4 -23 -42
-69 -63 -40 -18 -62 -19 -220 -16 -151 3 -176 2 -176 -11 0 -28 90 -42 285
-44 177 -1 185 0 188 19 3 11 9 23 16 27 23 15 83 8 110 -13 28 -22 32 -19 38
31 3 22 7 25 46 24 45 -1 47 2 32 55 -5 19 -9 36 -7 37 1 2 22 -10 46 -27 54
-36 71 -36 102 -3 l24 26 -36 -7 c-47 -9 -68 13 -50 52 11 24 15 25 59 19 75
-10 140 -35 171 -67 16 -16 41 -33 55 -39 l27 -10 -22 -42 c-58 -115 -172
-274 -201 -284 -9 -3 -35 4 -57 16 -41 20 -71 26 -71 13 0 -4 26 -33 57 -65
l57 -58 -39 3 c-45 2 -44 3 -30 -85 6 -42 5 -48 -19 -69 -18 -16 -26 -33 -26
-55 0 -41 -15 -52 -73 -56 l-48 -3 51 -40 c27 -22 50 -44 50 -50 0 -6 -25 -19
-55 -29 -30 -9 -55 -20 -55 -23 0 -3 13 -20 29 -38 32 -37 41 -83 68 -357 18
-191 14 -218 -34 -218 -148 1 -496 366 -686 720 -54 100 -223 479 -312 700
-51 128 -89 235 -111 318 -11 42 -165 41 -258 -1 -98 -45 -169 -37 -323 39
-47 24 -79 34 -92 29 -28 -9 -26 -25 9 -73 35 -49 36 -52 11 -52 -11 0 -34 18
-51 40 -34 43 -60 50 -119 29 -36 -13 -37 -16 -14 -41 15 -17 15 -18 -4 -18
-35 0 -119 29 -157 55 -20 14 -40 25 -44 25 -4 0 -14 -13 -23 -29 -22 -38 -59
-41 -254 -24 -82 7 -163 10 -178 7 -22 -5 -32 -1 -43 15 -14 19 -25 21 -137
21 -110 1 -120 2 -102 15 27 21 74 33 195 51 204 29 292 44 312 55 21 11 21
12 2 23 -27 16 -248 12 -439 -9 -200 -22 -286 -17 -385 23 -41 16 -99 33 -127
37 -60 8 -66 14 -67 64 -1 34 -3 36 -36 36 -33 0 -35 -2 -32 -32 2 -32 2 -32
-25 -21 -41 18 -136 74 -163 96 -33 27 -20 65 40 124 122 118 553 266 1554
533 1045 278 1625 391 2399 465 372 36 388 43 832 364 387 280 676 433 822
435 45 1 55 -3 68 -23z m-1208 -2352 c8 -21 -14 -34 -59 -34 -45 0 -49 14 -10
34 36 20 61 20 69 0z"/>
<path d="M4967 4648 c-19 -18 -89 -61 -156 -96 -66 -35 -121 -68 -121 -73 0
-13 1 -13 176 30 294 73 394 76 586 21 57 -16 116 -30 132 -30 25 0 27 2 15
17 -37 44 -165 77 -376 97 -166 16 -179 20 -186 47 -7 28 -31 23 -70 -13z"/>
<path d="M4978 4383 c-22 -6 -23 -17 -2 -37 30 -30 87 -12 66 21 -9 13 -42 22
-64 16z"/>
<path d="M5161 4372 c-11 -8 -9 -13 10 -25 35 -23 127 -37 285 -44 138 -6 194
-1 194 16 0 18 -68 33 -190 41 -69 5 -161 11 -205 15 -45 3 -86 2 -94 -3z"/>
<path d="M11732 3915 c-125 -14 -231 -37 -260 -56 -12 -7 17 -8 103 -4 66 4
245 12 397 19 152 6 280 14 283 18 4 3 -4 12 -17 20 -33 18 -350 20 -506 3z"/>
<path d="M11233 3863 c-22 -8 -14 -43 12 -55 19 -8 31 -8 50 0 60 27 0 80 -62
55z"/>
<path d="M12339 3844 c-18 -21 -58 -41 -102 -49 -66 -13 -29 -28 57 -23 88 5
136 22 136 48 0 38 -64 56 -91 24z"/>
<path d="M11020 3827 c-14 -7 -26 -23 -28 -35 -3 -19 1 -22 32 -22 44 0 65 29
40 54 -18 19 -13 19 -44 3z"/>
<path d="M2906 3541 c-42 -47 -136 -337 -136 -422 0 -104 25 -54 110 219 38
122 57 199 52 208 -7 12 -11 12 -26 -5z"/>
<path d="M2750 3507 c-27 -60 -56 -193 -69 -309 -13 -118 -13 -128 -1 -107 12
21 96 349 105 412 9 61 -9 63 -35 4z"/>
<path d="M2471 3483 c-41 -153 -69 -376 -62 -485 2 -27 17 -22 30 10 35 87 79
512 53 512 -6 0 -16 -17 -21 -37z"/>
<path d="M2627 3513 c-9 -15 -47 -150 -66 -239 -40 -178 -43 -274 -10 -274 20
0 38 69 65 241 34 226 39 279 26 279 -6 0 -13 -3 -15 -7z"/>
<path d="M2326 3468 c-29 -44 -41 -131 -41 -295 0 -108 4 -166 11 -173 25 -25
50 114 60 336 7 147 0 178 -30 132z"/>
<path d="M724 3460 c-22 -11 -54 -34 -70 -51 l-29 -31 38 -33 c45 -39 96 -65
127 -65 45 0 170 81 170 110 0 11 -19 32 -47 51 -61 42 -130 49 -189 19z"/>
<path d="M8193 3020 c-13 -6 -23 -18 -23 -30 0 -15 7 -20 29 -20 36 0 132 40
125 51 -7 12 -102 10 -131 -1z"/>
<path d="M4370 2965 c-11 -14 -11 -23 1 -58 23 -63 43 -62 37 2 -6 61 -19 79
-38 56z"/>
<path d="M4250 2875 c-15 -18 -5 -35 20 -35 29 0 70 22 70 37 0 18 -74 17 -90
-2z"/>
<path d="M2997 2612 c-24 -26 -21 -32 12 -32 26 0 41 14 41 41 0 16 -36 10
-53 -9z"/>
</g>
</svg>
