<?xml version="1.0" standalone="no"?><svg xmlns="http://www.w3.org/2000/svg" viewBox="0 0 1440 320"><path fill="#0099ff" fill-opacity="1" d="M0,128L21.8,133.3C43.6,139,87,149,131,149.3C174.5,149,218,139,262,160C305.5,181,349,235,393,229.3C436.4,224,480,160,524,160C567.3,160,611,224,655,250.7C698.2,277,742,267,785,229.3C829.1,192,873,128,916,128C960,128,1004,192,1047,202.7C1090.9,213,1135,171,1178,170.7C1221.8,171,1265,213,1309,218.7C1352.7,224,1396,192,1418,176L1440,160L1440,320L1418.2,320C1396.4,320,1353,320,1309,320C1265.5,320,1222,320,1178,320C1134.5,320,1091,320,1047,320C1003.6,320,960,320,916,320C872.7,320,829,320,785,320C741.8,320,698,320,655,320C610.9,320,567,320,524,320C480,320,436,320,393,320C349.1,320,305,320,262,320C218.2,320,175,320,131,320C87.3,320,44,320,22,320L0,320Z"></path></svg>